<svg xmlns="http://www.w3.org/2000/svg" viewBox="0 0 720 520" role="img" aria-labelledby="title desc">
  <title id="title">公司门户工作台插画</title>
  <desc id="desc">办公楼、数据面板、日程和协作消息构成的门户示意图。</desc>
  <defs>
    <linearGradient id="panel" x1="0" x2="1" y1="0" y2="1">
      <stop offset="0" stop-color="#ffffff"/>
      <stop offset="1" stop-color="#eaf2f5"/>
    </linearGradient>
    <linearGradient id="teal" x1="0" x2="1" y1="0" y2="1">
      <stop offset="0" stop-color="#1a7d85"/>
      <stop offset="1" stop-color="#0e5058"/>
    </linearGradient>
    <filter id="shadow" x="-20%" y="-20%" width="140%" height="150%">
      <feDropShadow dx="0" dy="18" stdDeviation="18" flood-color="#172033" flood-opacity=".14"/>
    </filter>
  </defs>
  <rect width="720" height="520" fill="#f8fbfd"/>
  <path d="M61 420c79-26 134-33 214-9 76 22 118 46 213 34 70-9 112-37 171-19v94H61z" fill="#dfe9ef"/>
  <rect x="82" y="110" width="238" height="300" rx="18" fill="url(#panel)" filter="url(#shadow)"/>
  <rect x="113" y="147" width="176" height="34" rx="8" fill="#146b72"/>
  <rect x="113" y="205" width="72" height="66" rx="10" fill="#fff4dd"/>
  <rect x="205" y="205" width="84" height="66" rx="10" fill="#e7f1f2"/>
  <rect x="113" y="292" width="176" height="14" rx="7" fill="#cbd8e5"/>
  <rect x="113" y="324" width="132" height="14" rx="7" fill="#cbd8e5"/>
  <rect x="113" y="356" width="154" height="14" rx="7" fill="#cbd8e5"/>
  <rect x="356" y="72" width="280" height="190" rx="20" fill="#fff" filter="url(#shadow)"/>
  <rect x="386" y="108" width="96" height="18" rx="9" fill="#146b72"/>
  <rect x="386" y="147" width="214" height="12" rx="6" fill="#d8e3ed"/>
  <rect x="386" y="178" width="148" height="12" rx="6" fill="#d8e3ed"/>
  <rect x="386" y="209" width="190" height="12" rx="6" fill="#d8e3ed"/>
  <circle cx="581" cy="119" r="28" fill="#fff4dd"/>
  <path d="M567 119l10 10 19-23" fill="none" stroke="#b8873c" stroke-width="8" stroke-linecap="round" stroke-linejoin="round"/>
  <rect x="358" y="298" width="244" height="112" rx="18" fill="url(#teal)" filter="url(#shadow)"/>
  <path d="M398 365l42-42 42 30 66-69" fill="none" stroke="#fff" stroke-width="13" stroke-linecap="round" stroke-linejoin="round" opacity=".9"/>
  <circle cx="398" cy="365" r="10" fill="#fff4dd"/>
  <circle cx="440" cy="323" r="10" fill="#fff4dd"/>
  <circle cx="482" cy="353" r="10" fill="#fff4dd"/>
  <circle cx="548" cy="284" r="10" fill="#fff4dd"/>
  <rect x="292" y="388" width="118" height="54" rx="14" fill="#ffffff" filter="url(#shadow)"/>
  <rect x="315" y="407" width="72" height="8" rx="4" fill="#b8873c"/>
  <rect x="315" y="424" width="48" height="8" rx="4" fill="#d8e3ed"/>
  <circle cx="615" cy="332" r="35" fill="#fff" filter="url(#shadow)"/>
  <path d="M599 333h32M615 317v32" stroke="#146b72" stroke-width="9" stroke-linecap="round"/>
</svg>
